<svg width="200" height="200" viewBox="0 0 200 200" fill="none" xmlns="http://www.w3.org/2000/svg">
    <circle cx="20" cy="20" r="4" fill="#7c3aed" />
    <circle cx="20" cy="50" r="4" fill="#7c3aed" />
    <circle cx="20" cy="80" r="4" fill="#7c3aed" />
    <circle cx="20" cy="110" r="4" fill="#7c3aed" />
    <circle cx="20" cy="140" r="4" fill="#7c3aed" />
    <circle cx="20" cy="170" r="4" fill="#7c3aed" />
    <circle cx="50" cy="20" r="4" fill="#7c3aed" />
    <circle cx="50" cy="50" r="4" fill="#7c3aed" />
    <circle cx="50" cy="80" r="4" fill="#7c3aed" />
    <circle cx="50" cy="110" r="4" fill="#7c3aed" />
    <circle cx="50" cy="140" r="4" fill="#7c3aed" />
    <circle cx="50" cy="170" r="4" fill="#7c3aed" />
    <circle cx="80" cy="20" r="4" fill="#7c3aed" />
    <circle cx="80" cy="50" r="4" fill="#7c3aed" />
    <circle cx="80" cy="80" r="4" fill="#7c3aed" />
    <circle cx="80" cy="110" r="4" fill="#7c3aed" />
    <circle cx="80" cy="140" r="4" fill="#7c3aed" />
    <circle cx="80" cy="170" r="4" fill="#7c3aed" />
    <circle cx="110" cy="20" r="4" fill="#7c3aed" />
    <circle cx="110" cy="50" r="4" fill="#7c3aed" />
    <circle cx="110" cy="80" r="4" fill="#7c3aed" />
    <circle cx="110" cy="110" r="4" fill="#7c3aed" />
    <circle cx="110" cy="140" r="4" fill="#7c3aed" />
    <circle cx="110" cy="170" r="4" fill="#7c3aed" />
    <circle cx="140" cy="20" r="4" fill="#7c3aed" />
    <circle cx="140" cy="50" r="4" fill="#7c3aed" />
    <circle cx="140" cy="80" r="4" fill="#7c3aed" />
    <circle cx="140" cy="110" r="4" fill="#7c3aed" />
    <circle cx="140" cy="140" r="4" fill="#7c3aed" />
    <circle cx="140" cy="170" r="4" fill="#7c3aed" />
    <circle cx="170" cy="20" r="4" fill="#7c3aed" />
    <circle cx="170" cy="50" r="4" fill="#7c3aed" />
    <circle cx="170" cy="80" r="4" fill="#7c3aed" />
    <circle cx="170" cy="110" r="4" fill="#7c3aed" />
    <circle cx="170" cy="140" r="4" fill="#7c3aed" />
    <circle cx="170" cy="170" r="4" fill="#7c3aed" />
</svg>