<?xml version="1.0" encoding="utf-8"?>
<!-- Uploaded to: SVG Repo, www.svgrepo.com, Generator: SVG Repo Mixer Tools -->
<svg width="48" height="48" viewBox="0 0 48 48" fill="none" xmlns="http://www.w3.org/2000/svg">
    <path
        d="M24 4C12.954 4 4 12.954 4 24C4 35.046 12.954 44 24 44C35.046 44 44 35.046 44 24C44 12.954 35.046 4 24 4ZM24 8C32.837 8 40 15.163 40 24C40 32.837 32.837 40 24 40C15.163 40 8 32.837 8 24C8 15.163 15.163 8 24 8Z"
        fill="#7C3AED" />
    <path
        d="M24 12C20.686 12 18 14.686 18 18C18 21.314 20.686 24 24 24C27.314 24 30 21.314 30 18C30 14.686 27.314 12 24 12ZM24 16C25.105 16 26 16.895 26 18C26 19.105 25.105 20 24 20C22.895 20 22 19.105 22 18C22 16.895 22.895 16 24 16Z"
        fill="#7C3AED" />
    <path
        d="M32 28H16C14.895 28 14 28.895 14 30V34C14 35.105 14.895 36 16 36H32C33.105 36 34 35.105 34 34V30C34 28.895 33.105 28 32 28ZM30 32H18V32C18 31.448 18.448 31 19 31H29C29.552 31 30 31.448 30 32V32Z"
        fill="#7C3AED" />
</svg>