<?xml version="1.0" encoding="utf-8"?>
<!-- Uploaded to: SVG Repo, www.svgrepo.com, Generator: SVG Repo Mixer Tools -->
<svg width="48" height="48" viewBox="0 0 48 48" fill="none" xmlns="http://www.w3.org/2000/svg">
    <path
        d="M24 4C12.954 4 4 12.954 4 24C4 35.046 12.954 44 24 44C35.046 44 44 35.046 44 24C44 12.954 35.046 4 24 4ZM24 8C32.837 8 40 15.163 40 24C40 32.837 32.837 40 24 40C15.163 40 8 32.837 8 24C8 15.163 15.163 8 24 8Z"
        fill="#3B82F6" />
    <path d="M24 12L28 20H36L30 26L32 34L24 30L16 34L18 26L12 20H20L24 12Z" fill="#3B82F6" />
</svg>